<svg width="39" height="40" viewBox="0 0 39 40" fill="none" xmlns="http://www.w3.org/2000/svg">
<path d="M4.08333 1.25H14.9167C16.7583 1.25 18.25 2.74167 18.25 4.58333V26.6667C18.25 28.5083 16.7583 30 14.9167 30H4.08333C2.24167 30 0.75 28.5083 0.75 26.6667V4.58333C0.75 2.74167 2.24167 1.25 4.08333 1.25Z" fill="#EDF8F7"/>
<path d="M9.5 17.5C11.5717 17.5 13.25 19.1783 13.25 21.25C13.25 23.3217 11.5717 25 9.5 25C7.42833 25 5.75 23.3217 5.75 21.25C5.75 19.1783 7.42833 17.5 9.5 17.5Z" fill="#EDF8F7"/>
<path d="M9.5 7.5C10.88 7.5 12 8.62 12 10C12 11.38 10.88 12.5 9.5 12.5C8.12 12.5 7 11.38 7 10C7 8.62 8.12 7.5 9.5 7.5Z" fill="#EDF8F7"/>
<path d="M9.5 30V38.75V30Z" fill="#EDF8F7"/>
<path d="M5.75 38.75H13.25H5.75Z" fill="#EDF8F7"/>
<path d="M22.215 2.715C23.1517 1.77667 24.4234 1.24834 25.75 1.25H33.25C36.0117 1.25 38.25 3.48834 38.25 6.25V25C38.25 27.7617 36.0117 30 33.25 30H25.75C24.4234 30.0017 23.1517 29.4733 22.215 28.535" fill="#EDF8F7"/>
<path d="M29.5 17.5C31.5717 17.5 33.25 19.1783 33.25 21.25C33.25 23.3217 31.5717 25 29.5 25C27.4283 25 25.75 23.3217 25.75 21.25C25.75 19.1783 27.4283 17.5 29.5 17.5Z" fill="#EDF8F7"/>
<path d="M29.5 7.5C30.88 7.5 32 8.62 32 10C32 11.38 30.88 12.5 29.5 12.5C28.12 12.5 27 11.38 27 10C27 8.62 28.12 7.5 29.5 7.5Z" fill="#EDF8F7"/>
<path d="M29.5 30V38.75V30Z" fill="#EDF8F7"/>
<path d="M25.75 38.75H33.25H25.75Z" fill="#EDF8F7"/>
<path d="M9.5 30V38.75M5.75 38.75H13.25M22.215 2.715C23.1517 1.77667 24.4234 1.24834 25.75 1.25H33.25C36.0117 1.25 38.25 3.48834 38.25 6.25V25C38.25 27.7617 36.0117 30 33.25 30H25.75C24.4234 30.0017 23.1517 29.4733 22.215 28.535M29.5 30V38.75M25.75 38.75H33.25M4.08333 1.25H14.9167C16.7583 1.25 18.25 2.74167 18.25 4.58333V26.6667C18.25 28.5083 16.7583 30 14.9167 30H4.08333C2.24167 30 0.75 28.5083 0.75 26.6667V4.58333C0.75 2.74167 2.24167 1.25 4.08333 1.25ZM9.5 17.5C11.5717 17.5 13.25 19.1783 13.25 21.25C13.25 23.3217 11.5717 25 9.5 25C7.42833 25 5.75 23.3217 5.75 21.25C5.75 19.1783 7.42833 17.5 9.5 17.5ZM9.5 7.5C10.88 7.5 12 8.62 12 10C12 11.38 10.88 12.5 9.5 12.5C8.12 12.5 7 11.38 7 10C7 8.62 8.12 7.5 9.5 7.5ZM29.5 17.5C31.5717 17.5 33.25 19.1783 33.25 21.25C33.25 23.3217 31.5717 25 29.5 25C27.4283 25 25.75 23.3217 25.75 21.25C25.75 19.1783 27.4283 17.5 29.5 17.5ZM29.5 7.5C30.88 7.5 32 8.62 32 10C32 11.38 30.88 12.5 29.5 12.5C28.12 12.5 27 11.38 27 10C27 8.62 28.12 7.5 29.5 7.5Z" stroke="#25AC9F" stroke-width="1.5" stroke-linecap="round" stroke-linejoin="round"/>
</svg>
