<svg width="40" height="31" viewBox="0 0 40 31" fill="none" xmlns="http://www.w3.org/2000/svg">
<path d="M0.750001 14.6882V5.22823C0.748335 3.15823 2.425 1.47823 4.495 1.47656C4.97333 1.47656 5.44833 1.56823 5.89333 1.74656L10.8217 3.71656C12.3933 4.34656 13.7067 5.4899 14.5483 6.9599L21.09 18.4099C22.425 20.7466 24.9117 22.1882 27.6033 22.1882H33C33.8367 22.1882 34.6167 22.6066 35.08 23.3016L38.0417 27.7449C38.425 28.3199 38.27 29.0949 37.695 29.4782C37.49 29.6149 37.2483 29.6882 37.0017 29.6882H22.2633C19.7567 29.6899 17.415 28.4382 16.0233 26.3549L9.35667 16.3649C8.66 15.3232 7.49 14.6982 6.23667 14.6982L0.750001 14.6882Z" fill="#EDF8F7"/>
<path d="M0.750001 14.6882L2.95333 27.9132C3.15 29.0716 4.24833 29.8516 5.405 29.6549C6.35833 29.4932 7.08167 28.7099 7.16833 27.7466L8.25 15.2782" fill="#EDF8F7"/>
<path d="M0.750001 14.6882V5.22823C0.748335 3.15823 2.425 1.47823 4.495 1.47656C4.97333 1.47656 5.44833 1.56823 5.89333 1.74656L10.8217 3.71656C12.3933 4.34656 13.7067 5.4899 14.5483 6.9599L21.09 18.4099C22.425 20.7466 24.9117 22.1882 27.6033 22.1882H33C33.8367 22.1882 34.6167 22.6066 35.08 23.3016L38.0417 27.7449C38.425 28.3199 38.27 29.0949 37.695 29.4782C37.49 29.6149 37.2483 29.6882 37.0017 29.6882H22.2633C19.7567 29.6899 17.415 28.4382 16.0233 26.3549L9.35667 16.3649C8.66 15.3232 7.49 14.6982 6.23667 14.6982L0.750001 14.6882ZM0.750001 14.6882L2.95333 27.9132C3.15 29.0716 4.24833 29.8516 5.405 29.6549C6.35833 29.4932 7.08167 28.7099 7.16833 27.7466L8.25 15.2782" stroke="#25AC9F" stroke-width="1.5" stroke-linecap="round" stroke-linejoin="round"/>
</svg>
