<svg width="39" height="40" viewBox="0 0 39 40" fill="none" xmlns="http://www.w3.org/2000/svg">
<path d="M38.25 33.75H0.75V36.25C0.75 37.63 1.87 38.75 3.25 38.75H35.75C37.13 38.75 38.25 37.63 38.25 36.25V33.75Z" fill="#EDF8F7"/>
<path d="M30.615 23.75H8.385C7.52333 23.75 6.72167 24.1933 6.265 24.925L0.75 33.75H38.25L32.735 24.925C32.2783 24.1933 31.4767 23.75 30.615 23.75Z" fill="#EDF8F7"/>
<path d="M18.25 28.75H20.75H18.25Z" fill="#EDF8F7"/>
<path d="M12 27.5L10.75 30L12 27.5Z" fill="#EDF8F7"/>
<path d="M27 27.5L28.25 30L27 27.5Z" fill="#EDF8F7"/>
<path d="M19.5 7.5C22.9517 7.5 25.75 10.2983 25.75 13.75C25.75 17.2017 22.9517 20 19.5 20C16.0483 20 13.25 17.2017 13.25 13.75C13.25 10.2983 16.0483 7.5 19.5 7.5Z" fill="#EDF8F7"/>
<path d="M29.5 11.25C29.5 5.72667 25.0233 1.25 19.5 1.25C13.9767 1.25 9.5 5.72667 9.5 11.25" fill="#EDF8F7"/>
<path d="M29.5 8.75C32.2617 8.75 34.5 10.9883 34.5 13.75C34.5 16.5117 32.2617 18.75 29.5 18.75V8.75Z" fill="#EDF8F7"/>
<path d="M9.5 8.75C6.73833 8.75 4.5 10.9883 4.5 13.75C4.5 16.5117 6.73833 18.75 9.5 18.75V8.75Z" fill="#EDF8F7"/>
<path d="M38.25 33.75H0.75M38.25 33.75V36.25C38.25 37.63 37.13 38.75 35.75 38.75H3.25C1.87 38.75 0.75 37.63 0.75 36.25V33.75M38.25 33.75L32.735 24.925C32.2783 24.1933 31.4767 23.75 30.615 23.75H8.385C7.52333 23.75 6.72167 24.1933 6.265 24.925L0.75 33.75M18.25 28.75H20.75M12 27.5L10.75 30M27 27.5L28.25 30M29.5 11.25C29.5 5.72667 25.0233 1.25 19.5 1.25C13.9767 1.25 9.5 5.72667 9.5 11.25M19.5 7.5C22.9517 7.5 25.75 10.2983 25.75 13.75C25.75 17.2017 22.9517 20 19.5 20C16.0483 20 13.25 17.2017 13.25 13.75C13.25 10.2983 16.0483 7.5 19.5 7.5ZM29.5 8.75C32.2617 8.75 34.5 10.9883 34.5 13.75C34.5 16.5117 32.2617 18.75 29.5 18.75V8.75ZM9.5 8.75C6.73833 8.75 4.5 10.9883 4.5 13.75C4.5 16.5117 6.73833 18.75 9.5 18.75V8.75Z" stroke="#25AC9F" stroke-width="1.5" stroke-linecap="round" stroke-linejoin="round"/>
</svg>
