<svg width="39" height="40" viewBox="0 0 39 40" fill="none" xmlns="http://www.w3.org/2000/svg">
<path d="M38.25 8.75C38.25 7.37 37.13 6.25 35.75 6.25H33.27C31.1583 6.30667 29.1267 5.44167 27.7033 3.88167C25.0133 0.731667 20.28 0.358333 17.13 3.04833C16.8317 3.30333 16.5533 3.58167 16.2967 3.88167C14.8733 5.44167 12.8417 6.30667 10.73 6.25H8.25C6.87 6.25 5.75 7.37 5.75 8.75C5.75 10.13 6.87 11.25 8.25 11.25H10.73C12.8417 11.1933 14.8733 12.0583 16.2967 13.6183C18.9867 16.7683 23.72 17.1417 26.87 14.4517C27.1683 14.1967 27.4467 13.9183 27.7033 13.6183C29.1267 12.0583 31.1583 11.1933 33.27 11.25H35.75C37.13 11.25 38.25 10.13 38.25 8.75Z" fill="#EDF8F7"/>
<path d="M5.75 1.25H10.75H5.75Z" fill="#EDF8F7"/>
<path d="M33.25 1.25H38.25H33.25Z" fill="#EDF8F7"/>
<path d="M14.3833 12.1117C11.4717 14.155 9.40833 17.1917 8.58333 20.6517L14.3833 12.1117Z" fill="#EDF8F7"/>
<path d="M29.6167 12.1117C32.5283 14.1533 34.5917 17.1917 35.4167 20.6517C35.7333 22.01 34.8883 23.3667 33.5317 23.6833C33.35 23.725 33.1633 23.7483 32.9767 23.75H30.75" fill="#EDF8F7"/>
<path d="M22 16.25C24.0717 16.25 25.75 17.9283 25.75 20C25.75 22.0717 24.0717 23.75 22 23.75C19.9283 23.75 18.25 22.0717 18.25 20C18.25 17.9283 19.9283 16.25 22 16.25Z" fill="#EDF8F7"/>
<path d="M13.25 26.25H5.75C2.98833 26.25 0.75 28.4883 0.75 31.25V36.4317C0.75 37.7117 1.78833 38.75 3.06833 38.75C3.94667 38.75 4.75 38.2533 5.14167 37.4683L7 33.75H12L13.86 37.47C14.435 38.6133 15.8283 39.075 16.9717 38.5017C17.755 38.1083 18.2483 37.3083 18.25 36.4317V31.25C18.25 28.4883 16.0117 26.25 13.25 26.25Z" fill="#EDF8F7"/>
<path d="M5.75 1.25H10.75M33.25 1.25H38.25M14.3833 12.1117C11.4717 14.155 9.40833 17.1917 8.58333 20.6517M29.6167 12.1117C32.5283 14.1533 34.5917 17.1917 35.4167 20.6517C35.7333 22.01 34.8883 23.3667 33.5317 23.6833C33.35 23.725 33.1633 23.7483 32.9767 23.75H30.75M38.25 8.75C38.25 7.37 37.13 6.25 35.75 6.25H33.27C31.1583 6.30667 29.1267 5.44167 27.7033 3.88167C25.0133 0.731667 20.28 0.358333 17.13 3.04833C16.8317 3.30333 16.5533 3.58167 16.2967 3.88167C14.8733 5.44167 12.8417 6.30667 10.73 6.25H8.25C6.87 6.25 5.75 7.37 5.75 8.75C5.75 10.13 6.87 11.25 8.25 11.25H10.73C12.8417 11.1933 14.8733 12.0583 16.2967 13.6183C18.9867 16.7683 23.72 17.1417 26.87 14.4517C27.1683 14.1967 27.4467 13.9183 27.7033 13.6183C29.1267 12.0583 31.1583 11.1933 33.27 11.25H35.75C37.13 11.25 38.25 10.13 38.25 8.75ZM22 16.25C24.0717 16.25 25.75 17.9283 25.75 20C25.75 22.0717 24.0717 23.75 22 23.75C19.9283 23.75 18.25 22.0717 18.25 20C18.25 17.9283 19.9283 16.25 22 16.25ZM13.25 26.25H5.75C2.98833 26.25 0.75 28.4883 0.75 31.25V36.4317C0.75 37.7117 1.78833 38.75 3.06833 38.75C3.94667 38.75 4.75 38.2533 5.14167 37.4683L7 33.75H12L13.86 37.47C14.435 38.6133 15.8283 39.075 16.9717 38.5017C17.755 38.1083 18.2483 37.3083 18.25 36.4317V31.25C18.25 28.4883 16.0117 26.25 13.25 26.25Z" stroke="#25AC9F" stroke-width="1.5" stroke-linecap="round" stroke-linejoin="round"/>
</svg>
