<svg width="39" height="40" viewBox="0 0 39 40" fill="none" xmlns="http://www.w3.org/2000/svg">
<path d="M2.41667 23.75H26.5833C27.5033 23.75 28.25 24.4967 28.25 25.4167V37.0833C28.25 38.0033 27.5033 38.75 26.5833 38.75H2.41667C1.49667 38.75 0.75 38.0033 0.75 37.0833V25.4167C0.75 24.4967 1.49667 23.75 2.41667 23.75Z" fill="#EDF8F7"/>
<path d="M38.25 11.25V3.75C38.25 2.37 37.13 1.25 35.75 1.25H3.25C1.87 1.25 0.75 2.37 0.75 3.75V11.25" fill="#EDF8F7"/>
<path d="M25.75 18.75V1.25H30.75V18.75" fill="#EDF8F7"/>
<path d="M8.25 28.75V33.75V28.75Z" fill="#EDF8F7"/>
<path d="M5.75 31.25H10.75H5.75Z" fill="#EDF8F7"/>
<path d="M22.625 32.5C22.97 32.5 23.25 32.78 23.25 33.125L22.625 32.5Z" fill="#EDF8F7"/>
<path d="M22 33.125C22 32.78 22.28 32.5 22.625 32.5L22 33.125Z" fill="#EDF8F7"/>
<path d="M22.625 33.75C22.28 33.75 22 33.47 22 33.125L22.625 33.75Z" fill="#EDF8F7"/>
<path d="M23.25 33.125C23.25 33.47 22.97 33.75 22.625 33.75L23.25 33.125Z" fill="#EDF8F7"/>
<path d="M17 32.5C17.345 32.5 17.625 32.78 17.625 33.125L17 32.5Z" fill="#EDF8F7"/>
<path d="M16.375 33.125C16.375 32.78 16.655 32.5 17 32.5L16.375 33.125Z" fill="#EDF8F7"/>
<path d="M17 33.75C16.655 33.75 16.375 33.47 16.375 33.125L17 33.75Z" fill="#EDF8F7"/>
<path d="M17.625 33.125C17.625 33.47 17.345 33.75 17 33.75L17.625 33.125Z" fill="#EDF8F7"/>
<path d="M0.75 11.25L2.68 17.04C3.02 18.0617 3.975 18.75 5.05167 18.75H33.9483C35.025 18.75 35.98 18.0617 36.32 17.04L38.25 11.25H0.75Z" fill="#EDF8F7"/>
<path d="M25.75 6.25H10.75C9.37 6.25 8.25 5.13 8.25 3.75V1.25" fill="#EDF8F7"/>
<path d="M33.25 18.75V30C33.25 31.38 32.13 32.5 30.75 32.5H28.25" fill="#EDF8F7"/>
<path d="M38.25 11.25V3.75C38.25 2.37 37.13 1.25 35.75 1.25H3.25C1.87 1.25 0.75 2.37 0.75 3.75V11.25M38.25 11.25L36.32 17.04C35.98 18.0617 35.025 18.75 33.9483 18.75H5.05167C3.975 18.75 3.02 18.0617 2.68 17.04L0.75 11.25M38.25 11.25H0.75M25.75 18.75V1.25H30.75V18.75M8.25 28.75V33.75M5.75 31.25H10.75M25.75 6.25H10.75C9.37 6.25 8.25 5.13 8.25 3.75V1.25M33.25 18.75V30C33.25 31.38 32.13 32.5 30.75 32.5H28.25M2.41667 23.75H26.5833C27.5033 23.75 28.25 24.4967 28.25 25.4167V37.0833C28.25 38.0033 27.5033 38.75 26.5833 38.75H2.41667C1.49667 38.75 0.75 38.0033 0.75 37.0833V25.4167C0.75 24.4967 1.49667 23.75 2.41667 23.75ZM22.625 32.5C22.97 32.5 23.25 32.78 23.25 33.125C23.25 33.47 22.97 33.75 22.625 33.75C22.28 33.75 22 33.47 22 33.125C22 32.78 22.28 32.5 22.625 32.5ZM17 32.5C17.345 32.5 17.625 32.78 17.625 33.125C17.625 33.47 17.345 33.75 17 33.75C16.655 33.75 16.375 33.47 16.375 33.125C16.375 32.78 16.655 32.5 17 32.5Z" stroke="#25AC9F" stroke-width="1.5" stroke-linecap="round" stroke-linejoin="round"/>
</svg>
