<svg width="39" height="40" viewBox="0 0 39 40" fill="none" xmlns="http://www.w3.org/2000/svg">
<path d="M9.5 27.5C9.5 30.5533 8.42167 33.5083 6.455 35.845L4.01167 38.75H34.9883L32.545 35.845C30.5783 33.5083 29.5 30.5533 29.5 27.5" fill="#EDF8F7"/>
<path d="M14.5 26.25H24.5H14.5Z" fill="#EDF8F7"/>
<path d="M17.5 26.25L14.5 33.75L17.5 26.25Z" fill="#EDF8F7"/>
<path d="M21.435 26.25L24.5 33.75L21.435 26.25Z" fill="#EDF8F7"/>
<path d="M15.5 31.25H23.4783H15.5Z" fill="#EDF8F7"/>
<path d="M38.25 33.75H31.1067H38.25Z" fill="#EDF8F7"/>
<path d="M12 22.04C12.03 22.2633 11.875 22.47 11.65 22.5C11.57 22.5117 11.4867 22.4983 11.415 22.4617L8.16667 21.1983C7.48 20.88 7.02833 20.2033 7 19.4467V15.5533C7.02833 14.7967 7.48 14.12 8.16667 13.8017L11.4117 12.5383C11.6133 12.4383 11.8583 12.5217 11.9583 12.725C11.995 12.7983 12.0083 12.88 11.9967 12.96L12 22.04Z" fill="#EDF8F7"/>
<path d="M3.25 20V33.75V20Z" fill="#EDF8F7"/>
<path d="M0.75 33.75H7.89333H0.75Z" fill="#EDF8F7"/>
<path d="M7.09667 20H2.625C1.59 20 0.75 19.16 0.75 18.125V16.875C0.75 15.84 1.59 15 2.625 15H7.09667" fill="#EDF8F7"/>
<path d="M27 22.04C26.97 22.2633 27.125 22.47 27.35 22.5C27.43 22.5117 27.5133 22.4983 27.585 22.4617L30.83 21.1983C31.5167 20.88 31.9683 20.2033 31.9967 19.4467V15.5533C31.9683 14.7967 31.5167 14.12 30.83 13.8017L27.585 12.5383C27.3833 12.4383 27.1383 12.5217 27.0383 12.725C27.0017 12.7983 26.9883 12.88 27 12.96V22.04Z" fill="#EDF8F7"/>
<path d="M35.75 20V33.75V20Z" fill="#EDF8F7"/>
<path d="M31.9017 20H36.375C37.41 20 38.25 19.16 38.25 18.125V16.875C38.25 15.84 37.41 15 36.375 15H31.9017" fill="#EDF8F7"/>
<path d="M9.91667 1.25H29.0833C30.0033 1.25 30.75 1.99667 30.75 2.91667V4.58333C30.75 5.50333 30.0033 6.25 29.0833 6.25H9.91667C8.99667 6.25 8.25 5.50333 8.25 4.58333V2.91667C8.25 1.99667 8.99667 1.25 9.91667 1.25Z" fill="#EDF8F7"/>
<path d="M9.5 27.5C9.5 30.5533 8.42167 33.5083 6.455 35.845L4.01167 38.75H34.9883L32.545 35.845C30.5783 33.5083 29.5 30.5533 29.5 27.5M14.5 26.25H24.5M17.5 26.25L14.5 33.75M21.435 26.25L24.5 33.75M15.5 31.25H23.4783M38.25 33.75H31.1067M3.25 20V33.75M0.75 33.75H7.89333M7.09667 20H2.625C1.59 20 0.75 19.16 0.75 18.125V16.875C0.75 15.84 1.59 15 2.625 15H7.09667M35.75 20V33.75M31.9017 20H36.375C37.41 20 38.25 19.16 38.25 18.125V16.875C38.25 15.84 37.41 15 36.375 15H31.9017M12 22.04C12.03 22.2633 11.875 22.47 11.65 22.5C11.57 22.5117 11.4867 22.4983 11.415 22.4617L8.16667 21.1983C7.48 20.88 7.02833 20.2033 7 19.4467V15.5533C7.02833 14.7967 7.48 14.12 8.16667 13.8017L11.4117 12.5383C11.6133 12.4383 11.8583 12.5217 11.9583 12.725C11.995 12.7983 12.0083 12.88 11.9967 12.96L12 22.04ZM27 22.04C26.97 22.2633 27.125 22.47 27.35 22.5C27.43 22.5117 27.5133 22.4983 27.585 22.4617L30.83 21.1983C31.5167 20.88 31.9683 20.2033 31.9967 19.4467V15.5533C31.9683 14.7967 31.5167 14.12 30.83 13.8017L27.585 12.5383C27.3833 12.4383 27.1383 12.5217 27.0383 12.725C27.0017 12.7983 26.9883 12.88 27 12.96V22.04ZM9.91667 1.25H29.0833C30.0033 1.25 30.75 1.99667 30.75 2.91667V4.58333C30.75 5.50333 30.0033 6.25 29.0833 6.25H9.91667C8.99667 6.25 8.25 5.50333 8.25 4.58333V2.91667C8.25 1.99667 8.99667 1.25 9.91667 1.25Z" stroke="#25AC9F" stroke-width="1.5" stroke-linecap="round" stroke-linejoin="round"/>
</svg>
