<svg width="38" height="40" viewBox="0 0 38 40" fill="none" xmlns="http://www.w3.org/2000/svg">
<path d="M23.73 1.25L1.19662 36.8333C0.826621 37.415 0.998288 38.1867 1.57995 38.5567C1.77995 38.685 2.01329 38.7517 2.25162 38.7517H35.21C35.9 38.7533 36.4583 38.195 36.46 37.505C36.46 37.2667 36.3933 37.0333 36.265 36.8333L13.73 1.25" fill="#EDF8F7"/>
<path d="M11.23 38.75L17.6666 28.0367C18.0216 27.445 18.7883 27.2517 19.3816 27.6067C19.5583 27.7117 19.7066 27.86 19.8116 28.0367L26.2383 38.75" fill="#EDF8F7"/>
<path d="M16.23 21.25H21.23H16.23Z" fill="#EDF8F7"/>
<path d="M23.73 1.25L1.19662 36.8333C0.826621 37.415 0.998288 38.1867 1.57995 38.5567C1.77995 38.685 2.01329 38.7517 2.25162 38.7517H35.21C35.9 38.7533 36.4583 38.195 36.46 37.505C36.46 37.2667 36.3933 37.0333 36.265 36.8333L13.73 1.25M11.23 38.75L17.6666 28.0367C18.0216 27.445 18.7883 27.2517 19.3816 27.6067C19.5583 27.7117 19.7066 27.86 19.8116 28.0367L26.2383 38.75M16.23 21.25H21.23" stroke="#25AC9F" stroke-width="1.5" stroke-linecap="round" stroke-linejoin="round"/>
</svg>
