<svg width="39" height="35" viewBox="0 0 39 35" fill="none" xmlns="http://www.w3.org/2000/svg">
<path d="M17.4167 0.75H34.9167C36.7583 0.75 38.25 2.24167 38.25 4.08333V12.4167C38.25 14.2583 36.7583 15.75 34.9167 15.75H17.4167C16.4967 15.75 15.75 15.0033 15.75 14.0833V2.41667C15.75 1.49667 16.4967 0.75 17.4167 0.75Z" fill="#EDF8F7"/>
<path d="M27.795 30.0633C28.085 32.0933 29.965 33.5033 31.995 33.2133C34.025 32.9233 35.435 31.0433 35.145 29.0133L33.25 15.75H25.75L27.795 30.0633Z" fill="#EDF8F7"/>
<path d="M9.91667 3.25H15.75V13.25H9.91667C8.99667 13.25 8.25 12.5033 8.25 11.5833V4.91667C8.25 3.99667 8.99667 3.25 9.91667 3.25Z" fill="#EDF8F7"/>
<path d="M8.25 8.25H0.75H8.25Z" fill="#EDF8F7"/>
<path d="M20.75 15.75L21.1967 17.98C21.6633 20.3167 23.715 22 26.0983 22H26.6433" fill="#EDF8F7"/>
<path d="M25.75 5.75H30.75H25.75Z" fill="#EDF8F7"/>
<path d="M25.75 10.75H30.75H25.75Z" fill="#EDF8F7"/>
<path d="M8.25 8.25H0.75M20.75 15.75L21.1967 17.98C21.6633 20.3167 23.715 22 26.0983 22H26.6433M25.75 5.75H30.75M25.75 10.75H30.75M17.4167 0.75H34.9167C36.7583 0.75 38.25 2.24167 38.25 4.08333V12.4167C38.25 14.2583 36.7583 15.75 34.9167 15.75H17.4167C16.4967 15.75 15.75 15.0033 15.75 14.0833V2.41667C15.75 1.49667 16.4967 0.75 17.4167 0.75ZM27.795 30.0633C28.085 32.0933 29.965 33.5033 31.995 33.2133C34.025 32.9233 35.435 31.0433 35.145 29.0133L33.25 15.75H25.75L27.795 30.0633ZM9.91667 3.25H15.75V13.25H9.91667C8.99667 13.25 8.25 12.5033 8.25 11.5833V4.91667C8.25 3.99667 8.99667 3.25 9.91667 3.25Z" stroke="#25AC9F" stroke-width="1.5" stroke-linecap="round" stroke-linejoin="round"/>
</svg>
