<svg width="39" height="40" viewBox="0 0 39 40" fill="none" xmlns="http://www.w3.org/2000/svg">
<path d="M4.5 31.25C6.57167 31.25 8.25 32.9283 8.25 35C8.25 37.0717 6.57167 38.75 4.5 38.75C2.42833 38.75 0.75 37.0717 0.75 35C0.75 32.9283 2.42833 31.25 4.5 31.25Z" fill="#EDF8F7"/>
<path d="M22 31.25C24.0717 31.25 25.75 32.9283 25.75 35C25.75 37.0717 24.0717 38.75 22 38.75C19.9283 38.75 18.25 37.0717 18.25 35C18.25 32.9283 19.9283 31.25 22 31.25Z" fill="#EDF8F7"/>
<path d="M24.5 26.25H5.20167C4.055 26.25 3.055 25.47 2.77667 24.3567L0.75 16.25H28.25" fill="#EDF8F7"/>
<path d="M22.6067 31.2983L30.7867 9.485C31.5183 7.53333 33.3833 6.24 35.4683 6.24H38.25" fill="#EDF8F7"/>
<path d="M8.03667 33.75H18.4633H8.03667Z" fill="#EDF8F7"/>
<path d="M0.75 16.25C0.75 7.965 7.465 1.25 15.75 1.25V16.25" fill="#EDF8F7"/>
<path d="M15.75 16.25L2.79167 8.69L15.75 16.25Z" fill="#EDF8F7"/>
<path d="M15.75 16.25L8.19 3.29167L15.75 16.25Z" fill="#EDF8F7"/>
<path d="M24.5 26.25H5.20167C4.055 26.25 3.055 25.47 2.77667 24.3567L0.75 16.25M0.75 16.25H28.25M0.75 16.25C0.75 7.965 7.465 1.25 15.75 1.25V16.25M22.6067 31.2983L30.7867 9.485C31.5183 7.53333 33.3833 6.24 35.4683 6.24H38.25M8.03667 33.75H18.4633M15.75 16.25L2.79167 8.69M15.75 16.25L8.19 3.29167M4.5 31.25C6.57167 31.25 8.25 32.9283 8.25 35C8.25 37.0717 6.57167 38.75 4.5 38.75C2.42833 38.75 0.75 37.0717 0.75 35C0.75 32.9283 2.42833 31.25 4.5 31.25ZM22 31.25C24.0717 31.25 25.75 32.9283 25.75 35C25.75 37.0717 24.0717 38.75 22 38.75C19.9283 38.75 18.25 37.0717 18.25 35C18.25 32.9283 19.9283 31.25 22 31.25Z" stroke="#25AC9F" stroke-width="1.5" stroke-linecap="round" stroke-linejoin="round"/>
</svg>
