<svg width="39" height="40" viewBox="0 0 39 40" fill="none" xmlns="http://www.w3.org/2000/svg">
<path d="M20.5383 29.8333C20.3866 28.5116 21.2933 27.3033 22.6049 27.0816C23.6483 26.9233 24.6166 26.4383 25.3683 25.6983C27.8099 23.2583 27.2016 18.6983 24.0033 15.4933C20.8049 12.2883 16.2383 11.6866 13.7983 14.1283C13.0583 14.88 12.5733 15.8483 12.4149 16.8916C12.1949 18.2033 10.9866 19.1116 9.6666 18.9616C7.25327 18.5933 4.80493 19.36 3.03327 21.0416C-0.383399 24.4583 0.299934 30.6833 4.55993 34.9433C8.81993 39.2033 15.0449 39.8866 18.4616 36.47C20.1433 34.6983 20.9099 32.2483 20.5383 29.8333Z" fill="#EDF8F7"/>
<path d="M30.1883 5.77498L32.8399 3.12331C33.8166 2.14665 35.3999 2.14665 36.3749 3.12331C37.3516 4.09998 37.3516 5.68331 36.3749 6.65831L33.7233 9.30998C32.7466 10.2866 31.1633 10.2866 30.1883 9.30998C29.2133 8.33498 29.2133 6.75165 30.1883 5.77498Z" fill="#EDF8F7"/>
<path d="M30.1899 9.30998L24.0033 15.4966L30.1899 9.30998Z" fill="#EDF8F7"/>
<path d="M31.0733 1.35498L32.8416 3.12331L31.0733 1.35498Z" fill="#EDF8F7"/>
<path d="M36.3766 6.65831L38.1449 8.42665L36.3766 6.65831Z" fill="#EDF8F7"/>
<path d="M33.7249 9.30998L35.4933 11.0783L33.7249 9.30998Z" fill="#EDF8F7"/>
<path d="M28.4216 4.00665L30.1899 5.77498L28.4216 4.00665Z" fill="#EDF8F7"/>
<path d="M17.8149 19.185C19.1949 19.185 20.3149 20.305 20.3149 21.685C20.3149 23.065 19.1949 24.185 17.8149 24.185C16.4349 24.185 15.3149 23.065 15.3149 21.685C15.3149 20.305 16.4349 19.185 17.8149 19.185Z" fill="#EDF8F7"/>
<path d="M8.09327 27.8716L11.6283 31.4066L8.09327 27.8716Z" fill="#EDF8F7"/>
<path d="M30.1899 9.30998L24.0033 15.4966M31.0733 1.35498L32.8416 3.12331M36.3766 6.65831L38.1449 8.42665M33.7249 9.30998L35.4933 11.0783M28.4216 4.00665L30.1899 5.77498M8.09327 27.8716L11.6283 31.4066M20.5383 29.8333C20.3866 28.5116 21.2933 27.3033 22.6049 27.0816C23.6483 26.9233 24.6166 26.4383 25.3683 25.6983C27.8099 23.2583 27.2016 18.6983 24.0033 15.4933C20.8049 12.2883 16.2383 11.6866 13.7983 14.1283C13.0583 14.88 12.5733 15.8483 12.4149 16.8916C12.1949 18.2033 10.9866 19.1116 9.6666 18.9616C7.25327 18.5933 4.80493 19.36 3.03327 21.0416C-0.383399 24.4583 0.299934 30.6833 4.55993 34.9433C8.81993 39.2033 15.0449 39.8866 18.4616 36.47C20.1433 34.6983 20.9099 32.2483 20.5383 29.8333ZM30.1883 5.77498L32.8399 3.12331C33.8166 2.14665 35.3999 2.14665 36.3749 3.12331C37.3516 4.09998 37.3516 5.68331 36.3749 6.65831L33.7233 9.30998C32.7466 10.2866 31.1633 10.2866 30.1883 9.30998C29.2133 8.33498 29.2133 6.75165 30.1883 5.77498ZM17.8149 19.185C19.1949 19.185 20.3149 20.305 20.3149 21.685C20.3149 23.065 19.1949 24.185 17.8149 24.185C16.4349 24.185 15.3149 23.065 15.3149 21.685C15.3149 20.305 16.4349 19.185 17.8149 19.185Z" stroke="#25AC9F" stroke-width="1.5" stroke-linecap="round" stroke-linejoin="round"/>
</svg>
