<svg width="39" height="38" viewBox="0 0 39 38" fill="none" xmlns="http://www.w3.org/2000/svg">
<path d="M36.3883 29.875C36.7333 29.875 37.0133 30.155 37.0133 30.5L36.3883 29.875Z" fill="#EDF8F7"/>
<path d="M35.7633 30.5C35.7633 30.155 36.0433 29.875 36.3883 29.875L35.7633 30.5Z" fill="#EDF8F7"/>
<path d="M36.3883 31.125C36.0433 31.125 35.7633 30.845 35.7633 30.5L36.3883 31.125Z" fill="#EDF8F7"/>
<path d="M37.0133 30.5C37.0133 30.845 36.7333 31.125 36.3883 31.125L37.0133 30.5Z" fill="#EDF8F7"/>
<path d="M17.625 34.8334C17.97 34.8334 18.25 35.1134 18.25 35.4584L17.625 34.8334Z" fill="#EDF8F7"/>
<path d="M17 35.4584C17 35.1134 17.28 34.8334 17.625 34.8334L17 35.4584Z" fill="#EDF8F7"/>
<path d="M17.625 36.0834C17.28 36.0834 17 35.8034 17 35.4584L17.625 36.0834Z" fill="#EDF8F7"/>
<path d="M18.25 35.4584C18.25 35.8034 17.97 36.0834 17.625 36.0834L18.25 35.4584Z" fill="#EDF8F7"/>
<path d="M37.625 11.0834C37.97 11.0834 38.25 11.3634 38.25 11.7084L37.625 11.0834Z" fill="#EDF8F7"/>
<path d="M37 11.7084C37 11.3634 37.28 11.0834 37.625 11.0834L37 11.7084Z" fill="#EDF8F7"/>
<path d="M37.625 12.3334C37.28 12.3334 37 12.0534 37 11.7084L37.625 12.3334Z" fill="#EDF8F7"/>
<path d="M38.25 11.7084C38.25 12.0534 37.97 12.3334 37.625 12.3334L38.25 11.7084Z" fill="#EDF8F7"/>
<path d="M1.375 27.3334C1.72 27.3334 2 27.6134 2 27.9584L1.375 27.3334Z" fill="#EDF8F7"/>
<path d="M0.75 27.9584C0.75 27.6134 1.03 27.3334 1.375 27.3334L0.75 27.9584Z" fill="#EDF8F7"/>
<path d="M1.375 28.5834C1.03 28.5834 0.75 28.3034 0.75 27.9584L1.375 28.5834Z" fill="#EDF8F7"/>
<path d="M2 27.9584C2 28.3034 1.72 28.5834 1.375 28.5834L2 27.9584Z" fill="#EDF8F7"/>
<path d="M24.5 2.33338C28.6417 2.33338 32 6.25171 32 11.0834C32 15.915 28.6417 19.8334 24.5 19.8334C20.3583 19.8334 17 15.915 17 11.0834C17 6.25171 20.3583 2.33338 24.5 2.33338Z" fill="#EDF8F7"/>
<path d="M24.5 19.8334L22.25 22.8334C21.835 23.385 21.9483 24.1684 22.5 24.5834C22.7167 24.745 22.98 24.8334 23.25 24.8334H25.75C26.44 24.8334 27 24.2734 27 23.5834C27 23.3134 26.9117 23.05 26.75 22.8334L24.5 19.8334Z" fill="#EDF8F7"/>
<path d="M24.7617 24.8334C23.5133 26.5834 23.7133 28.98 25.2333 30.5C26.9517 32.2167 26.9517 35.0017 25.235 36.72L25.2333 36.7217" fill="#EDF8F7"/>
<path d="M14.5 2.25505C13.395 1.49838 12.0867 1.09171 10.7467 1.08838C6.605 1.08838 3.24667 5.00671 3.24667 9.83838C3.24667 14.67 6.605 18.5884 10.7467 18.5884C12.085 18.585 13.3917 18.1784 14.4967 17.4217" fill="#EDF8F7"/>
<path d="M10.75 18.5834L13 21.5834C13.415 22.135 13.3017 22.9184 12.75 23.3334C12.5333 23.495 12.27 23.5834 12 23.5834H9.5C8.81 23.5834 8.25 23.0234 8.25 22.3334C8.25 22.0634 8.33833 21.8 8.5 21.5834L10.75 18.5834Z" fill="#EDF8F7"/>
<path d="M10.4883 23.5834C11.7367 25.3334 11.5367 27.73 10.0167 29.25C8.29833 30.9667 8.29833 33.7517 10.015 35.47L10.0167 35.4717" fill="#EDF8F7"/>
<path d="M24.5 19.8334C28.6417 19.8334 32 15.915 32 11.0834C32 6.25171 28.6417 2.33338 24.5 2.33338C20.3583 2.33338 17 6.25171 17 11.0834C17 15.915 20.3583 19.8334 24.5 19.8334ZM24.5 19.8334L22.25 22.8334C21.835 23.385 21.9483 24.1684 22.5 24.5834C22.7167 24.745 22.98 24.8334 23.25 24.8334H25.75C26.44 24.8334 27 24.2734 27 23.5834C27 23.3134 26.9117 23.05 26.75 22.8334L24.5 19.8334ZM24.7617 24.8334C23.5133 26.5834 23.7133 28.98 25.2333 30.5C26.9517 32.2167 26.9517 35.0017 25.235 36.72L25.2333 36.7217M14.5 2.25505C13.395 1.49838 12.0867 1.09171 10.7467 1.08838C6.605 1.08838 3.24667 5.00671 3.24667 9.83838C3.24667 14.67 6.605 18.5884 10.7467 18.5884C12.085 18.585 13.3917 18.1784 14.4967 17.4217M10.4883 23.5834C11.7367 25.3334 11.5367 27.73 10.0167 29.25C8.29833 30.9667 8.29833 33.7517 10.015 35.47L10.0167 35.4717M36.3883 29.875C36.7333 29.875 37.0133 30.155 37.0133 30.5C37.0133 30.845 36.7333 31.125 36.3883 31.125C36.0433 31.125 35.7633 30.845 35.7633 30.5C35.7633 30.155 36.0433 29.875 36.3883 29.875ZM17.625 34.8334C17.97 34.8334 18.25 35.1134 18.25 35.4584C18.25 35.8034 17.97 36.0834 17.625 36.0834C17.28 36.0834 17 35.8034 17 35.4584C17 35.1134 17.28 34.8334 17.625 34.8334ZM37.625 11.0834C37.97 11.0834 38.25 11.3634 38.25 11.7084C38.25 12.0534 37.97 12.3334 37.625 12.3334C37.28 12.3334 37 12.0534 37 11.7084C37 11.3634 37.28 11.0834 37.625 11.0834ZM1.375 27.3334C1.72 27.3334 2 27.6134 2 27.9584C2 28.3034 1.72 28.5834 1.375 28.5834C1.03 28.5834 0.75 28.3034 0.75 27.9584C0.75 27.6134 1.03 27.3334 1.375 27.3334ZM10.75 18.5834L13 21.5834C13.415 22.135 13.3017 22.9184 12.75 23.3334C12.5333 23.495 12.27 23.5834 12 23.5834H9.5C8.81 23.5834 8.25 23.0234 8.25 22.3334C8.25 22.0634 8.33833 21.8 8.5 21.5834L10.75 18.5834Z" stroke="#25AC9F" stroke-width="1.5" stroke-linecap="round" stroke-linejoin="round"/>
</svg>
