<svg width="39" height="40" viewBox="0 0 39 40" fill="none" xmlns="http://www.w3.org/2000/svg">
<path d="M18.6767 23.7499H5.75C2.98833 23.7499 0.75 25.9882 0.75 28.7499V36.2499C0.75 37.6299 1.87 38.7499 3.25 38.7499H35.75C37.13 38.7499 38.25 37.6299 38.25 36.2499V28.7499C38.25 25.9882 36.0117 23.7499 33.25 23.7499H32.8233" fill="#EDF8F7"/>
<path d="M25.75 18.7499C29.8917 18.7499 33.25 22.1082 33.25 26.2499C33.25 30.3916 29.8917 33.7499 25.75 33.7499C21.6083 33.7499 18.25 30.3916 18.25 26.2499C18.25 22.1082 21.6083 18.7499 25.75 18.7499Z" fill="#EDF8F7"/>
<path d="M5.75 29.9999V32.4999V29.9999Z" fill="#EDF8F7"/>
<path d="M10.75 29.9999V32.4999V29.9999Z" fill="#EDF8F7"/>
<path d="M25.75 23.7499C24.37 23.7499 23.25 24.8699 23.25 26.2499C23.25 27.6299 24.37 28.7499 25.75 28.7499C27.13 28.7499 28.25 27.6299 28.25 26.2499C28.25 24.8699 27.13 23.7499 25.75 23.7499Z" fill="#EDF8F7"/>
<path d="M14.5 12.3332C14.5 13.1216 15.14 13.7599 15.9283 13.7582C16.15 13.7582 16.3683 13.7066 16.565 13.6082L26.2117 8.78491C26.9167 8.43158 27.2017 7.57491 26.8483 6.86991C26.71 6.59491 26.4867 6.36991 26.2117 6.23325L16.565 1.40158C15.86 1.04825 15.0033 1.33491 14.65 2.03991C14.5517 2.23658 14.5 2.45491 14.5 2.67658V12.3332Z" fill="#EDF8F7"/>
<path d="M37.9417 1.26491C38.1633 1.32491 38.295 1.55325 38.235 1.77658C38.175 1.99991 37.9467 2.12991 37.7233 2.06991C37.5017 2.00991 37.37 1.78158 37.43 1.55991C37.49 1.33825 37.7167 1.20491 37.94 1.26491H37.9417Z" fill="#EDF8F7"/>
<path d="M36.3333 8.03158C36.555 8.09325 36.685 8.32325 36.6233 8.54491C36.5617 8.76658 36.3317 8.89658 36.11 8.83491C35.8917 8.77325 35.7633 8.55158 35.8167 8.33325C35.8767 8.11158 36.105 7.97991 36.3267 8.03825" fill="#EDF8F7"/>
<path d="M34.0583 15.7532C34.28 15.8132 34.4133 16.0416 34.3533 16.2632C34.2933 16.4849 34.065 16.6182 33.8433 16.5582C33.6217 16.4982 33.4883 16.2699 33.5483 16.0482C33.6083 15.8266 33.8367 15.6932 34.0583 15.7532Z" fill="#EDF8F7"/>
<path d="M1.05833 1.26491C0.836667 1.32491 0.705 1.55325 0.765 1.77658C0.825 1.99991 1.05333 2.12991 1.27667 2.06991C1.49833 2.00991 1.63 1.78158 1.57 1.55991C1.51 1.33825 1.28333 1.20491 1.06 1.26491H1.05833Z" fill="#EDF8F7"/>
<path d="M2.66667 8.03158C2.445 8.09325 2.315 8.32325 2.37667 8.54491C2.44 8.76658 2.67 8.89658 2.89167 8.83491C3.10833 8.77325 3.23667 8.55158 3.18333 8.33325C3.12667 8.10991 2.9 7.97325 2.67667 8.02991C2.67333 8.02991 2.67 8.02991 2.66667 8.03158Z" fill="#EDF8F7"/>
<path d="M4.94167 15.7532C4.72 15.8132 4.58667 16.0416 4.64667 16.2632C4.70667 16.4849 4.935 16.6182 5.15667 16.5582C5.37833 16.4982 5.51167 16.2699 5.45167 16.0482C5.39167 15.8266 5.16333 15.6932 4.94167 15.7532Z" fill="#EDF8F7"/>
<path d="M18.6767 23.7499H5.75C2.98833 23.7499 0.75 25.9882 0.75 28.7499V36.2499C0.75 37.6299 1.87 38.7499 3.25 38.7499H35.75C37.13 38.7499 38.25 37.6299 38.25 36.2499V28.7499C38.25 25.9882 36.0117 23.7499 33.25 23.7499H32.8233M5.75 29.9999V32.4999M10.75 29.9999V32.4999M36.3333 8.03158C36.555 8.09325 36.685 8.32325 36.6233 8.54491C36.5617 8.76658 36.3317 8.89658 36.11 8.83491C35.8917 8.77325 35.7633 8.55158 35.8167 8.33325C35.8767 8.11158 36.105 7.97991 36.3267 8.03825M25.75 18.7499C29.8917 18.7499 33.25 22.1082 33.25 26.2499C33.25 30.3916 29.8917 33.7499 25.75 33.7499C21.6083 33.7499 18.25 30.3916 18.25 26.2499C18.25 22.1082 21.6083 18.7499 25.75 18.7499ZM25.75 23.7499C24.37 23.7499 23.25 24.8699 23.25 26.2499C23.25 27.6299 24.37 28.7499 25.75 28.7499C27.13 28.7499 28.25 27.6299 28.25 26.2499C28.25 24.8699 27.13 23.7499 25.75 23.7499ZM14.5 12.3332C14.5 13.1216 15.14 13.7599 15.9283 13.7582C16.15 13.7582 16.3683 13.7066 16.565 13.6082L26.2117 8.78491C26.9167 8.43158 27.2017 7.57491 26.8483 6.86991C26.71 6.59491 26.4867 6.36991 26.2117 6.23325L16.565 1.40158C15.86 1.04825 15.0033 1.33491 14.65 2.03991C14.5517 2.23658 14.5 2.45491 14.5 2.67658V12.3332ZM37.9417 1.26491C38.1633 1.32491 38.295 1.55325 38.235 1.77658C38.175 1.99991 37.9467 2.12991 37.7233 2.06991C37.5017 2.00991 37.37 1.78158 37.43 1.55991C37.49 1.33825 37.7167 1.20491 37.94 1.26491H37.9417ZM34.0583 15.7532C34.28 15.8132 34.4133 16.0416 34.3533 16.2632C34.2933 16.4849 34.065 16.6182 33.8433 16.5582C33.6217 16.4982 33.4883 16.2699 33.5483 16.0482C33.6083 15.8266 33.8367 15.6932 34.0583 15.7532ZM1.05833 1.26491C0.836667 1.32491 0.705 1.55325 0.765 1.77658C0.825 1.99991 1.05333 2.12991 1.27667 2.06991C1.49833 2.00991 1.63 1.78158 1.57 1.55991C1.51 1.33825 1.28333 1.20491 1.06 1.26491H1.05833ZM2.66667 8.03158C2.445 8.09325 2.315 8.32325 2.37667 8.54491C2.44 8.76658 2.67 8.89658 2.89167 8.83491C3.10833 8.77325 3.23667 8.55158 3.18333 8.33325C3.12667 8.10991 2.9 7.97325 2.67667 8.02991C2.67333 8.02991 2.67 8.02991 2.66667 8.03158ZM4.94167 15.7532C4.72 15.8132 4.58667 16.0416 4.64667 16.2632C4.70667 16.4849 4.935 16.6182 5.15667 16.5582C5.37833 16.4982 5.51167 16.2699 5.45167 16.0482C5.39167 15.8266 5.16333 15.6932 4.94167 15.7532Z" stroke="#25AC9F" stroke-width="1.5" stroke-linecap="round" stroke-linejoin="round"/>
</svg>
