<svg width="40" height="40" viewBox="0 0 40 40" fill="none" xmlns="http://www.w3.org/2000/svg">
<path d="M10.75 1.25C13.1667 1.25 15.125 3.20833 15.125 5.625C15.125 8.04167 13.1667 10 10.75 10C8.33333 10 6.375 8.04167 6.375 5.625C6.375 3.20833 8.33333 1.25 10.75 1.25Z" fill="#EDF8F7"/>
<path d="M10.75 27.5V36.25V27.5Z" fill="#EDF8F7"/>
<path d="M18.5567 23.2983C17.4367 22.5383 16.4817 21.5583 15.75 20.42V36.2533C15.75 37.6333 14.63 38.7533 13.25 38.7533C11.87 38.7533 10.75 37.6333 10.75 36.2533C10.75 37.6333 9.63 38.7533 8.25 38.7533C6.87 38.7533 5.75 37.6333 5.75 36.2533V25C5.75 26.38 4.63 27.5 3.25 27.5C1.87 27.5 0.75 26.38 0.75 25V20C0.75 15.8583 4.10833 12.5 8.25 12.5H12.6667C14.7983 12.5017 16.8283 13.4117 18.25 15" fill="#EDF8F7"/>
<path d="M5.75 25V20V25Z" fill="#EDF8F7"/>
<path d="M29.9367 1.88833C30.405 1.485 31.0967 1.485 31.565 1.88833C35.9733 5.86167 38.4167 11.5683 38.25 17.5C38.1483 24.12 37.0817 30.6883 35.0833 37C34.755 38.04 33.79 38.7483 32.7 38.7483H28.795C27.705 38.7483 26.74 38.04 26.4117 37C24.4133 30.6883 23.3467 24.12 23.245 17.5C23.08 11.5667 25.5267 5.86 29.9367 1.88833Z" fill="#EDF8F7"/>
<path d="M23.4633 22.2867L36.6567 9.09333L23.4633 22.2867Z" fill="#EDF8F7"/>
<path d="M24.9183 31.4567L38.2467 18.1283L24.9183 31.4567Z" fill="#EDF8F7"/>
<path d="M10.75 27.5V36.25M18.5567 23.2983C17.4367 22.5383 16.4817 21.5583 15.75 20.42V36.2533C15.75 37.6333 14.63 38.7533 13.25 38.7533C11.87 38.7533 10.75 37.6333 10.75 36.2533C10.75 37.6333 9.63 38.7533 8.25 38.7533C6.87 38.7533 5.75 37.6333 5.75 36.2533V25M5.75 25C5.75 26.38 4.63 27.5 3.25 27.5C1.87 27.5 0.75 26.38 0.75 25V20C0.75 15.8583 4.10833 12.5 8.25 12.5H12.6667C14.7983 12.5017 16.8283 13.4117 18.25 15M5.75 25V20M23.4633 22.2867L36.6567 9.09333M24.9183 31.4567L38.2467 18.1283M10.75 1.25C13.1667 1.25 15.125 3.20833 15.125 5.625C15.125 8.04167 13.1667 10 10.75 10C8.33333 10 6.375 8.04167 6.375 5.625C6.375 3.20833 8.33333 1.25 10.75 1.25ZM29.9367 1.88833C30.405 1.485 31.0967 1.485 31.565 1.88833C35.9733 5.86167 38.4167 11.5683 38.25 17.5C38.1483 24.12 37.0817 30.6883 35.0833 37C34.755 38.04 33.79 38.7483 32.7 38.7483H28.795C27.705 38.7483 26.74 38.04 26.4117 37C24.4133 30.6883 23.3467 24.12 23.245 17.5C23.08 11.5667 25.5267 5.86 29.9367 1.88833Z" stroke="#25AC9F" stroke-width="1.5" stroke-linecap="round" stroke-linejoin="round"/>
</svg>
