<svg width="40" height="40" viewBox="0 0 40 40" fill="none" xmlns="http://www.w3.org/2000/svg">
<path d="M38.2583 38.5833V12.5833C38.2583 11.66 37.75 10.8117 36.935 10.3767L20.685 1.71001C19.95 1.31834 19.0683 1.31834 18.3333 1.71001L2.0833 10.3767C1.2683 10.8117 0.758301 11.66 0.758301 12.5833V38.5833" fill="#EDF8F7"/>
<path d="M19.5083 28.5833H10.7583C10.0683 28.5833 9.5083 29.1433 9.5083 29.8333V37.3333C9.5083 38.0233 10.0683 38.5833 10.7583 38.5833H18.2583C18.9483 38.5833 19.5083 38.0233 19.5083 37.3333V28.5833Z" fill="#EDF8F7"/>
<path d="M28.2583 28.5833H19.5083V37.3333C19.5083 38.0233 20.0683 38.5833 20.7583 38.5833H28.2583C28.9483 38.5833 29.5083 38.0233 29.5083 37.3333V29.8333C29.5083 29.1433 28.9483 28.5833 28.2583 28.5833Z" fill="#EDF8F7"/>
<path d="M23.2583 18.5833H15.7583C15.0683 18.5833 14.5083 19.1433 14.5083 19.8333V28.5833H24.5083V19.8333C24.5083 19.1433 23.9483 18.5833 23.2583 18.5833Z" fill="#EDF8F7"/>
<path d="M38.2583 38.5833V12.5833C38.2583 11.66 37.75 10.8117 36.935 10.3767L20.685 1.71001C19.95 1.31834 19.0683 1.31834 18.3333 1.71001L2.0833 10.3767C1.2683 10.8117 0.758301 11.66 0.758301 12.5833V38.5833M19.5083 28.5833H10.7583C10.0683 28.5833 9.5083 29.1433 9.5083 29.8333V37.3333C9.5083 38.0233 10.0683 38.5833 10.7583 38.5833H18.2583C18.9483 38.5833 19.5083 38.0233 19.5083 37.3333M19.5083 28.5833V37.3333M19.5083 28.5833H28.2583C28.9483 28.5833 29.5083 29.1433 29.5083 29.8333V37.3333C29.5083 38.0233 28.9483 38.5833 28.2583 38.5833H20.7583C20.0683 38.5833 19.5083 38.0233 19.5083 37.3333M23.2583 18.5833H15.7583C15.0683 18.5833 14.5083 19.1433 14.5083 19.8333V28.5833H24.5083V19.8333C24.5083 19.1433 23.9483 18.5833 23.2583 18.5833Z" stroke="#25AC9F" stroke-width="1.5" stroke-linecap="round" stroke-linejoin="round"/>
</svg>
