<svg width="37" height="40" viewBox="0 0 37 40" fill="none" xmlns="http://www.w3.org/2000/svg">
<path d="M6 33.7717V36.2717C6 37.6517 7.12 38.7717 8.5 38.7717C9.88 38.7717 11 37.6517 11 36.2717V33.7717H6Z" fill="#EDF8F7"/>
<path d="M26 33.7717V36.2717C26 37.6517 27.12 38.7717 28.5 38.7717C29.88 38.7717 31 37.6517 31 36.2717V33.7717H26Z" fill="#EDF8F7"/>
<path d="M18.5 1.27173C11.5967 1.27173 3.5 5.61839 3.5 12.5217V31.2717C3.5 32.6517 4.62 33.7717 6 33.7717H31C32.38 33.7717 33.5 32.6517 33.5 31.2717V12.5217C33.5 5.61839 25.4033 1.27173 18.5 1.27173Z" fill="#EDF8F7"/>
<path d="M3.5 18.7717H33.5H3.5Z" fill="#EDF8F7"/>
<path d="M4.36333 8.77173H32.6367H4.36333Z" fill="#EDF8F7"/>
<path d="M18.5 18.7717V8.77173V18.7717Z" fill="#EDF8F7"/>
<path d="M8.5 28.1467C8.845 28.1467 9.125 28.4267 9.125 28.7717L8.5 28.1467Z" fill="#EDF8F7"/>
<path d="M7.875 28.7717C7.875 28.4267 8.155 28.1467 8.5 28.1467L7.875 28.7717Z" fill="#EDF8F7"/>
<path d="M8.5 29.3967C8.155 29.3967 7.875 29.1167 7.875 28.7717L8.5 29.3967Z" fill="#EDF8F7"/>
<path d="M9.125 28.7717C9.125 29.1167 8.845 29.3967 8.5 29.3967L9.125 28.7717Z" fill="#EDF8F7"/>
<path d="M28.5 28.1467C28.845 28.1467 29.125 28.4267 29.125 28.7717L28.5 28.1467Z" fill="#EDF8F7"/>
<path d="M27.875 28.7717C27.875 28.4267 28.155 28.1467 28.5 28.1467L27.875 28.7717Z" fill="#EDF8F7"/>
<path d="M28.5 29.3967C28.155 29.3967 27.875 29.1167 27.875 28.7717L28.5 29.3967Z" fill="#EDF8F7"/>
<path d="M29.125 28.7717C29.125 29.1167 28.845 29.3967 28.5 29.3967L29.125 28.7717Z" fill="#EDF8F7"/>
<path d="M18.5 33.7717C18.5 30.0217 13.5 21.2717 3.5 18.7717L18.5 33.7717Z" fill="#EDF8F7"/>
<path d="M18.5 33.7717C18.5 30.0217 23.5 21.2717 33.5 18.7717L18.5 33.7717Z" fill="#EDF8F7"/>
<path d="M3.5 16.2717H1H3.5Z" fill="#EDF8F7"/>
<path d="M36 16.2717H33.5H36Z" fill="#EDF8F7"/>
<path d="M6 33.7717V36.2717C6 37.6517 7.12 38.7717 8.5 38.7717C9.88 38.7717 11 37.6517 11 36.2717V33.7717H6ZM6 33.7717C4.62 33.7717 3.5 32.6517 3.5 31.2717V12.5217C3.5 5.61839 11.5967 1.27173 18.5 1.27173C25.4033 1.27173 33.5 5.61839 33.5 12.5217V31.2717C33.5 32.6517 32.38 33.7717 31 33.7717M6 33.7717H31M31 33.7717V36.2717C31 37.6517 29.88 38.7717 28.5 38.7717C27.12 38.7717 26 37.6517 26 36.2717V33.7717H31ZM4.36333 8.77173H32.6367M18.5 18.7717V8.77173M3.5 16.2717H1M36 16.2717H33.5M3.5 18.7717H33.5C23.5 21.2717 18.5 30.0217 18.5 33.7717C18.5 30.0217 13.5 21.2717 3.5 18.7717ZM8.5 28.1467C8.845 28.1467 9.125 28.4267 9.125 28.7717C9.125 29.1167 8.845 29.3967 8.5 29.3967C8.155 29.3967 7.875 29.1167 7.875 28.7717C7.875 28.4267 8.155 28.1467 8.5 28.1467ZM28.5 28.1467C28.845 28.1467 29.125 28.4267 29.125 28.7717C29.125 29.1167 28.845 29.3967 28.5 29.3967C28.155 29.3967 27.875 29.1167 27.875 28.7717C27.875 28.4267 28.155 28.1467 28.5 28.1467Z" stroke="#25AC9F" stroke-width="1.5" stroke-linecap="round" stroke-linejoin="round"/>
</svg>
